<svg width="133" height="183" viewBox="0 0 133 183" fill="none" xmlns="http://www.w3.org/2000/svg">
<g opacity="0.8" clip-path="url(#clip0_2234_9590)">
<path d="M39.0118 176.93C40.484 176.93 41.5881 178.038 41.5881 179.515C41.5881 180.992 40.484 182.1 39.0118 182.1C37.5397 182.1 36.4355 180.992 36.4355 179.515C36.4355 178.038 37.6623 176.93 39.0118 176.93Z" fill="#FFCF2D"/>
<path d="M39.0118 154.898C40.484 154.898 41.5881 156.006 41.5881 157.483C41.5881 158.96 40.484 160.067 39.0118 160.067C37.5397 160.067 36.4355 158.96 36.4355 157.483C36.4355 156.129 37.6623 154.898 39.0118 154.898Z" fill="#FFCF2D"/>
<path d="M39.0118 132.989C40.484 132.989 41.5881 134.096 41.5881 135.573C41.5881 137.05 40.484 138.158 39.0118 138.158C37.5397 138.158 36.4355 137.05 36.4355 135.573C36.4355 134.096 37.6623 132.989 39.0118 132.989Z" fill="#FFCF2D"/>
<path d="M39.0118 110.955C40.484 110.955 41.5881 112.063 41.5881 113.54C41.5881 115.017 40.484 116.125 39.0118 116.125C37.5397 116.125 36.4355 115.017 36.4355 113.54C36.4355 112.063 37.6623 110.955 39.0118 110.955Z" fill="#FFCF2D"/>
<path d="M39.0118 88.9231C40.484 88.9231 41.5881 90.0309 41.5881 91.508C41.5881 92.985 40.484 94.0928 39.0118 94.0928C37.5397 94.0928 36.4355 92.985 36.4355 91.508C36.4355 90.154 37.6623 88.9231 39.0118 88.9231Z" fill="#FFCF2D"/>
<path d="M39.0118 66.8899C40.484 66.8899 41.5881 67.9977 41.5881 69.4748C41.5881 70.9518 40.484 72.0596 39.0118 72.0596C37.5397 72.0596 36.4355 70.9518 36.4355 69.4748C36.4355 67.9977 37.6623 66.8899 39.0118 66.8899Z" fill="#FFCF2D"/>
<path d="M39.0118 44.9817C40.484 44.9817 41.5881 46.0895 41.5881 47.5665C41.5881 49.0436 40.484 50.1514 39.0118 50.1514C37.5397 50.1514 36.4355 49.0436 36.4355 47.5665C36.4355 46.0895 37.6623 44.9817 39.0118 44.9817Z" fill="#FFCF2D"/>
<path d="M39.0118 22.9485C40.484 22.9485 41.5881 24.0563 41.5881 25.5334C41.5881 27.0104 40.484 28.1182 39.0118 28.1182C37.5397 28.1182 36.4355 27.0104 36.4355 25.5334C36.4355 24.0563 37.6623 22.9485 39.0118 22.9485Z" fill="#FFCF2D"/>
<path d="M39.0118 0.916321C40.484 0.916321 41.5881 2.02409 41.5881 3.50112C41.5881 4.97815 40.484 6.08594 39.0118 6.08594C37.5397 6.08594 36.4355 4.97815 36.4355 3.50112C36.4355 2.14717 37.6623 0.916321 39.0118 0.916321Z" fill="#FFCF2D"/>
<path d="M57.2911 176.93C58.7633 176.93 59.8674 178.038 59.8674 179.515C59.8674 180.992 58.7633 182.1 57.2911 182.1C55.819 182.1 54.7148 180.992 54.7148 179.515C54.7148 178.038 55.819 176.93 57.2911 176.93Z" fill="#FFCF2D"/>
<path d="M57.2911 154.898C58.7633 154.898 59.8674 156.006 59.8674 157.483C59.8674 158.96 58.7633 160.067 57.2911 160.067C55.819 160.067 54.7148 158.96 54.7148 157.483C54.7148 156.129 55.819 154.898 57.2911 154.898Z" fill="#FFCF2D"/>
<path d="M57.2911 132.989C58.7633 132.989 59.8674 134.096 59.8674 135.573C59.8674 137.05 58.7633 138.158 57.2911 138.158C55.819 138.158 54.7148 137.05 54.7148 135.573C54.7148 134.096 55.819 132.989 57.2911 132.989Z" fill="#FFCF2D"/>
<path d="M57.2911 110.955C58.7633 110.955 59.8674 112.063 59.8674 113.54C59.8674 115.017 58.7633 116.125 57.2911 116.125C55.819 116.125 54.7148 115.017 54.7148 113.54C54.7148 112.063 55.819 110.955 57.2911 110.955Z" fill="#FFCF2D"/>
<path d="M57.2911 88.9231C58.7633 88.9231 59.8674 90.0309 59.8674 91.508C59.8674 92.985 58.7633 94.0928 57.2911 94.0928C55.819 94.0928 54.7148 92.985 54.7148 91.508C54.7148 90.154 55.819 88.9231 57.2911 88.9231Z" fill="#FFCF2D"/>
<path d="M57.2911 66.8899C58.7633 66.8899 59.8674 67.9977 59.8674 69.4748C59.8674 70.9518 58.7633 72.0596 57.2911 72.0596C55.819 72.0596 54.7148 70.9518 54.7148 69.4748C54.7148 67.9977 55.819 66.8899 57.2911 66.8899Z" fill="#FFCF2D"/>
<path d="M57.2911 44.9817C58.7633 44.9817 59.8674 46.0895 59.8674 47.5665C59.8674 49.0436 58.7633 50.1514 57.2911 50.1514C55.819 50.1514 54.7148 49.0436 54.7148 47.5665C54.7148 46.0895 55.819 44.9817 57.2911 44.9817Z" fill="#FFCF2D"/>
<path d="M57.2911 22.9485C58.7633 22.9485 59.8674 24.0563 59.8674 25.5333C59.8674 27.0104 58.7633 28.1182 57.2911 28.1182C55.819 28.1182 54.7148 27.0104 54.7148 25.5333C54.7148 24.0563 55.819 22.9485 57.2911 22.9485Z" fill="#FFCF2D"/>
<path d="M57.2911 0.916306C58.7633 0.916306 59.8674 2.02407 59.8674 3.50111C59.8674 4.97815 58.7633 6.08594 57.2911 6.08594C55.819 6.08594 54.7148 4.97815 54.7148 3.50111C54.7148 2.14716 55.819 0.916306 57.2911 0.916306Z" fill="#FFCF2D"/>
<path d="M2.57626 176.93C4.04841 176.93 5.15252 178.038 5.15252 179.515C5.15252 180.992 4.04841 182.1 2.57626 182.1C1.10411 182.1 -4.84226e-08 180.992 -1.12986e-07 179.515C-1.7755e-07 178.038 1.10411 176.93 2.57626 176.93Z" fill="#FFCF2D"/>
<path d="M2.57626 154.898C4.04841 154.898 5.15252 156.006 5.15252 157.483C5.15252 158.96 4.04841 160.067 2.57626 160.067C1.10411 160.067 -4.84226e-08 158.96 -1.12986e-07 157.483C-1.72169e-07 156.129 1.10411 154.898 2.57626 154.898Z" fill="#FFCF2D"/>
<path d="M2.57626 132.989C4.04841 132.989 5.15252 134.096 5.15252 135.573C5.15252 137.05 4.04841 138.158 2.57626 138.158C1.10411 138.158 -5.38028e-08 136.927 -1.12986e-07 135.573C-1.77549e-07 134.096 1.10411 132.989 2.57626 132.989Z" fill="#FFCF2D"/>
<path d="M2.57626 110.955C4.04841 110.955 5.15252 112.063 5.15252 113.54C5.15252 115.017 4.04841 116.125 2.57626 116.125C1.10411 116.125 -5.3803e-08 114.894 -1.12986e-07 113.54C-1.72169e-07 112.186 1.10411 110.955 2.57626 110.955Z" fill="#FFCF2D"/>
<path d="M2.57626 88.9231C4.04841 88.9231 5.15252 90.0309 5.15252 91.508C5.15252 92.985 4.04841 94.0928 2.57626 94.0928C1.10411 94.0928 -4.84226e-08 92.985 -1.12986e-07 91.508C-1.72169e-07 90.154 1.10411 88.9231 2.57626 88.9231Z" fill="#FFCF2D"/>
<path d="M2.57626 66.8899C4.04841 66.8899 5.15252 67.9977 5.15252 69.4748C5.15252 70.9518 4.04841 72.0596 2.57626 72.0596C1.10411 72.0596 -4.84226e-08 70.9518 -1.12986e-07 69.4748C-1.7755e-07 67.9977 1.10411 66.8899 2.57626 66.8899Z" fill="#FFCF2D"/>
<path d="M2.57626 44.9817C4.04841 44.9817 5.15252 46.0895 5.15252 47.5665C5.15252 49.0436 4.04841 50.1514 2.57626 50.1514C1.10411 50.1514 -4.84228e-08 49.0436 -1.12986e-07 47.5665C-1.77549e-07 46.0895 1.10411 44.9817 2.57626 44.9817Z" fill="#FFCF2D"/>
<path d="M2.57626 22.9485C4.04841 22.9485 5.15252 24.0563 5.15252 25.5333C5.15252 27.0104 4.04841 28.1182 2.57626 28.1182C1.10411 28.1182 -4.84225e-08 27.0104 -1.12986e-07 25.5333C-1.7755e-07 24.0563 1.10411 22.9485 2.57626 22.9485Z" fill="#FFCF2D"/>
<path d="M2.57626 0.916321C4.04841 0.916321 5.15252 2.02409 5.15252 3.50112C5.15252 4.97815 4.04841 6.08594 2.57626 6.08594C1.10411 6.08594 -4.84227e-08 4.97815 -1.12986e-07 3.50112C-1.72169e-07 2.14717 1.10411 0.916321 2.57626 0.916321Z" fill="#FFCF2D"/>
<path d="M20.8556 176.93C22.3277 176.93 23.4318 178.038 23.4318 179.515C23.4318 180.992 22.205 182.1 20.8556 182.1C19.3834 182.1 18.2793 180.992 18.2793 179.515C18.2793 178.038 19.3834 176.93 20.8556 176.93Z" fill="#FFCF2D"/>
<path d="M20.8556 154.898C22.3277 154.898 23.4318 156.006 23.4318 157.483C23.4318 158.96 22.3277 160.067 20.8556 160.067C19.3834 160.067 18.2793 158.96 18.2793 157.483C18.2793 156.129 19.3834 154.898 20.8556 154.898Z" fill="#FFCF2D"/>
<path d="M20.8556 132.989C22.3277 132.989 23.4318 134.096 23.4318 135.573C23.4318 137.05 22.3277 138.158 20.8556 138.158C19.3834 138.158 18.2793 137.05 18.2793 135.573C18.2793 134.096 19.3834 132.989 20.8556 132.989Z" fill="#FFCF2D"/>
<path d="M20.8556 110.955C22.3277 110.955 23.4318 112.063 23.4318 113.54C23.4318 115.017 22.3277 116.125 20.8556 116.125C19.3834 116.125 18.2793 115.017 18.2793 113.54C18.2793 112.063 19.3834 110.955 20.8556 110.955Z" fill="#FFCF2D"/>
<path d="M20.8556 88.9231C22.3277 88.9231 23.4318 90.0309 23.4318 91.508C23.4318 92.985 22.3277 94.0928 20.8556 94.0928C19.3834 94.0928 18.2793 92.985 18.2793 91.508C18.2793 90.154 19.3834 88.9231 20.8556 88.9231Z" fill="#FFCF2D"/>
<path d="M20.8556 66.8899C22.3277 66.8899 23.4318 67.9977 23.4318 69.4748C23.4318 70.9518 22.3277 72.0596 20.8556 72.0596C19.3834 72.0596 18.2793 70.9518 18.2793 69.4748C18.2793 67.9977 19.3834 66.8899 20.8556 66.8899Z" fill="#FFCF2D"/>
<path d="M20.8556 44.9817C22.3277 44.9817 23.4318 46.0895 23.4318 47.5665C23.4318 49.0436 22.3277 50.1514 20.8556 50.1514C19.3834 50.1514 18.2793 49.0436 18.2793 47.5665C18.2793 46.0895 19.3834 44.9817 20.8556 44.9817Z" fill="#FFCF2D"/>
<path d="M20.8556 22.9485C22.3277 22.9485 23.4318 24.0563 23.4318 25.5333C23.4318 27.0104 22.3277 28.1182 20.8556 28.1182C19.3834 28.1182 18.2793 27.0104 18.2793 25.5333C18.2793 24.0563 19.3834 22.9485 20.8556 22.9485Z" fill="#FFCF2D"/>
<path d="M20.8556 0.916306C22.3277 0.916306 23.4318 2.02407 23.4318 3.50111C23.4318 4.97815 22.3277 6.08594 20.8556 6.08594C19.3834 6.08594 18.2793 4.97815 18.2793 3.50111C18.2793 2.14716 19.3834 0.916306 20.8556 0.916306Z" fill="#FFCF2D"/>
<path d="M75.4478 176.93C76.92 176.93 78.0241 178.038 78.0241 179.515C78.0241 180.992 76.92 182.1 75.4478 182.1C73.9757 182.1 72.8716 180.992 72.8716 179.515C72.8716 178.038 74.0984 176.93 75.4478 176.93Z" fill="#FFCF2D"/>
<path d="M75.4478 154.898C76.92 154.898 78.0241 156.006 78.0241 157.483C78.0241 158.96 76.92 160.067 75.4478 160.067C73.9757 160.067 72.8716 158.96 72.8716 157.483C72.8716 156.129 74.0984 154.898 75.4478 154.898Z" fill="#FFCF2D"/>
<path d="M75.4478 132.989C76.92 132.989 78.0241 134.096 78.0241 135.573C78.0241 137.05 76.92 138.158 75.4478 138.158C73.9757 138.158 72.8716 137.05 72.8716 135.573C72.8716 134.096 74.0984 132.989 75.4478 132.989Z" fill="#FFCF2D"/>
<path d="M75.4478 110.955C76.92 110.955 78.0241 112.063 78.0241 113.54C78.0241 115.017 76.92 116.125 75.4478 116.125C73.9757 116.125 72.8716 115.017 72.8716 113.54C72.8716 112.063 74.0984 110.955 75.4478 110.955Z" fill="#FFCF2D"/>
<path d="M75.4478 88.9231C76.92 88.9231 78.0241 90.0309 78.0241 91.508C78.0241 92.985 76.92 94.0928 75.4478 94.0928C73.9757 94.0928 72.8716 92.985 72.8716 91.508C72.8716 90.154 74.0984 88.9231 75.4478 88.9231Z" fill="#FFCF2D"/>
<path d="M75.4478 66.8899C76.92 66.8899 78.0241 67.9977 78.0241 69.4748C78.0241 70.9518 76.92 72.0596 75.4478 72.0596C73.9757 72.0596 72.8716 70.9518 72.8716 69.4748C72.8716 67.9977 74.0984 66.8899 75.4478 66.8899Z" fill="#FFCF2D"/>
<path d="M75.4478 44.9817C76.92 44.9817 78.0241 46.0895 78.0241 47.5665C78.0241 49.0436 76.92 50.1514 75.4478 50.1514C73.9757 50.1514 72.8716 49.0436 72.8716 47.5665C72.8716 46.0895 74.0984 44.9817 75.4478 44.9817Z" fill="#FFCF2D"/>
<path d="M75.4478 22.9485C76.92 22.9485 78.0241 24.0563 78.0241 25.5333C78.0241 27.0104 76.92 28.1182 75.4478 28.1182C73.9757 28.1182 72.8716 27.0104 72.8716 25.5333C72.8716 24.0563 74.0984 22.9485 75.4478 22.9485Z" fill="#FFCF2D"/>
<path d="M75.4478 0.916306C76.92 0.916306 78.0241 2.02407 78.0241 3.50111C78.0241 4.97815 76.92 6.08594 75.4478 6.08594C73.9757 6.08594 72.8716 4.97815 72.8716 3.50111C72.8716 2.14716 74.0984 0.916306 75.4478 0.916306Z" fill="#FFCF2D"/>
<path d="M93.7266 176.93C95.1988 176.93 96.3029 178.038 96.3029 179.515C96.3029 180.992 95.1988 182.1 93.7266 182.1C92.2545 182.1 91.1504 180.992 91.1504 179.515C91.1504 178.038 92.2545 176.93 93.7266 176.93Z" fill="#FFCF2D"/>
<path d="M93.7266 154.898C95.1988 154.898 96.3029 156.006 96.3029 157.483C96.3029 158.96 95.1988 160.067 93.7266 160.067C92.2545 160.067 91.1504 158.96 91.1504 157.483C91.1504 156.129 92.2545 154.898 93.7266 154.898Z" fill="#FFCF2D"/>
<path d="M93.7266 132.989C95.1988 132.989 96.3029 134.096 96.3029 135.573C96.3029 137.05 95.1988 138.158 93.7266 138.158C92.2545 138.158 91.1504 137.05 91.1504 135.573C91.1504 134.096 92.2545 132.989 93.7266 132.989Z" fill="#FFCF2D"/>
<path d="M96.3029 113.54C96.3029 112.113 95.1495 110.955 93.7266 110.955C92.3038 110.955 91.1504 112.113 91.1504 113.54C91.1504 114.968 92.3038 116.125 93.7266 116.125C95.1495 116.125 96.3029 114.968 96.3029 113.54Z" fill="#FFCF2D"/>
<path d="M93.7266 88.9231C95.1988 88.9231 96.3029 90.0309 96.3029 91.508C96.3029 92.985 95.1988 94.0928 93.7266 94.0928C92.2545 94.0928 91.1504 92.985 91.1504 91.508C91.1504 90.154 92.2545 88.9231 93.7266 88.9231Z" fill="#FFCF2D"/>
<path d="M93.7266 66.8899C95.1988 66.8899 96.3029 67.9977 96.3029 69.4748C96.3029 70.9518 95.1988 72.0596 93.7266 72.0596C92.2545 72.0596 91.1504 70.9518 91.1504 69.4748C91.1504 67.9977 92.2545 66.8899 93.7266 66.8899Z" fill="#FFCF2D"/>
<path d="M93.7266 44.9817C95.1988 44.9817 96.3029 46.0895 96.3029 47.5665C96.3029 49.0436 95.1988 50.1514 93.7266 50.1514C92.2545 50.1514 91.1504 49.0436 91.1504 47.5665C91.1504 46.0895 92.2545 44.9817 93.7266 44.9817Z" fill="#FFCF2D"/>
<path d="M96.3029 25.5333C96.3029 24.1058 95.1495 22.9485 93.7266 22.9485C92.3038 22.9485 91.1504 24.1058 91.1504 25.5333C91.1504 26.9609 92.3038 28.1182 93.7266 28.1182C95.1495 28.1182 96.3029 26.9609 96.3029 25.5333Z" fill="#FFCF2D"/>
<path d="M93.7266 0.916306C95.1988 0.916306 96.3029 2.02407 96.3029 3.50111C96.3029 4.97815 95.1988 6.08594 93.7266 6.08594C92.2545 6.08594 91.1504 4.97815 91.1504 3.50111C91.1504 2.14716 92.2545 0.916306 93.7266 0.916306Z" fill="#FFCF2D"/>
<path d="M112.006 176.93C113.478 176.93 114.582 178.038 114.582 179.515C114.582 180.992 113.478 182.1 112.006 182.1C110.534 182.1 109.43 180.992 109.43 179.515C109.43 178.038 110.534 176.93 112.006 176.93Z" fill="#FFCF2D"/>
<path d="M112.006 154.898C113.478 154.898 114.582 156.006 114.582 157.483C114.582 158.96 113.478 160.067 112.006 160.067C110.534 160.067 109.43 158.96 109.43 157.483C109.43 156.129 110.534 154.898 112.006 154.898Z" fill="#FFCF2D"/>
<path d="M112.006 132.989C113.478 132.989 114.582 134.096 114.582 135.573C114.582 137.05 113.478 138.158 112.006 138.158C110.534 138.158 109.43 137.05 109.43 135.573C109.43 134.096 110.534 132.989 112.006 132.989Z" fill="#FFCF2D"/>
<path d="M112.006 110.955C113.478 110.955 114.582 112.063 114.582 113.54C114.582 115.017 113.478 116.125 112.006 116.125C110.534 116.125 109.43 115.017 109.43 113.54C109.43 112.063 110.534 110.955 112.006 110.955Z" fill="#FFCF2D"/>
<path d="M112.006 88.9231C113.478 88.9231 114.582 90.0309 114.582 91.508C114.582 92.985 113.478 94.0928 112.006 94.0928C110.534 94.0928 109.43 92.985 109.43 91.508C109.43 90.154 110.534 88.9231 112.006 88.9231Z" fill="#FFCF2D"/>
<path d="M112.006 66.8899C113.478 66.8899 114.582 67.9977 114.582 69.4748C114.582 70.9518 113.478 72.0596 112.006 72.0596C110.534 72.0596 109.43 70.9518 109.43 69.4748C109.43 67.9977 110.534 66.8899 112.006 66.8899Z" fill="#FFCF2D"/>
<path d="M112.006 44.9817C113.478 44.9817 114.582 46.0895 114.582 47.5665C114.582 49.0436 113.478 50.1514 112.006 50.1514C110.534 50.1514 109.43 49.0436 109.43 47.5665C109.43 46.0895 110.534 44.9817 112.006 44.9817Z" fill="#FFCF2D"/>
<path d="M112.006 22.9485C113.478 22.9485 114.582 24.0563 114.582 25.5333C114.582 27.0104 113.478 28.1182 112.006 28.1182C110.534 28.1182 109.43 27.0104 109.43 25.5333C109.43 24.0563 110.534 22.9485 112.006 22.9485Z" fill="#FFCF2D"/>
<path d="M112.006 0.916306C113.478 0.916306 114.582 2.02407 114.582 3.50111C114.582 4.97815 113.478 6.08594 112.006 6.08594C110.534 6.08594 109.43 4.97815 109.43 3.50111C109.43 2.14716 110.534 0.916306 112.006 0.916306Z" fill="#FFCF2D"/>
<path d="M130.163 176.93C131.635 176.93 132.739 178.038 132.739 179.515C132.739 180.992 131.635 182.1 130.163 182.1C128.691 182.1 127.586 180.992 127.586 179.515C127.586 178.038 128.813 176.93 130.163 176.93Z" fill="#FFCF2D"/>
<path d="M130.163 154.898C131.635 154.898 132.739 156.006 132.739 157.483C132.739 158.96 131.635 160.067 130.163 160.067C128.691 160.067 127.586 158.96 127.586 157.483C127.586 156.129 128.813 154.898 130.163 154.898Z" fill="#FFCF2D"/>
<path d="M130.163 132.989C131.635 132.989 132.739 134.096 132.739 135.573C132.739 137.05 131.635 138.158 130.163 138.158C128.691 138.158 127.586 137.05 127.586 135.573C127.586 134.096 128.813 132.989 130.163 132.989Z" fill="#FFCF2D"/>
<path d="M130.163 110.955C131.635 110.955 132.739 112.063 132.739 113.54C132.739 115.017 131.635 116.125 130.163 116.125C128.691 116.125 127.586 115.017 127.586 113.54C127.586 112.063 128.813 110.955 130.163 110.955Z" fill="#FFCF2D"/>
<path d="M130.163 88.9231C131.635 88.9231 132.739 90.0309 132.739 91.508C132.739 92.985 131.635 94.0928 130.163 94.0928C128.691 94.0928 127.586 92.985 127.586 91.508C127.586 90.154 128.813 88.9231 130.163 88.9231Z" fill="#FFCF2D"/>
<path d="M130.163 66.8899C131.635 66.8899 132.739 67.9977 132.739 69.4748C132.739 70.9518 131.635 72.0596 130.163 72.0596C128.691 72.0596 127.586 70.9518 127.586 69.4748C127.586 67.9977 128.813 66.8899 130.163 66.8899Z" fill="#FFCF2D"/>
<path d="M130.163 44.9817C131.635 44.9817 132.739 46.0895 132.739 47.5665C132.739 49.0436 131.635 50.1514 130.163 50.1514C128.691 50.1514 127.586 49.0436 127.586 47.5665C127.586 46.0895 128.813 44.9817 130.163 44.9817Z" fill="#FFCF2D"/>
<path d="M130.163 22.9485C131.635 22.9485 132.739 24.0563 132.739 25.5333C132.739 27.0104 131.635 28.1182 130.163 28.1182C128.691 28.1182 127.586 27.0104 127.586 25.5333C127.586 24.0563 128.813 22.9485 130.163 22.9485Z" fill="#FFCF2D"/>
<path d="M130.163 0.916306C131.635 0.916306 132.739 2.02407 132.739 3.50111C132.739 4.97815 131.635 6.08594 130.163 6.08594C128.691 6.08594 127.586 4.97815 127.586 3.50111C127.586 2.14716 128.813 0.916306 130.163 0.916306Z" fill="#FFCF2D"/>
</g>
<defs>
<clipPath id="clip0_2234_9590">
<rect width="181.184" height="132.739" fill="white" transform="translate(0 182.1) rotate(-90)"/>
</clipPath>
</defs>
</svg>
